<svg width="774" height="216" viewBox="0 0 774 216" fill="none" xmlns="http://www.w3.org/2000/svg">
<path d="M107.983 0C167.621 3.41461e-05 215.967 48.3459 215.967 107.983C215.967 167.621 167.621 215.967 107.983 215.967C48.3459 215.967 3.41502e-05 167.621 0 107.983C0 48.3459 48.3459 0 107.983 0ZM107.983 9.56934C72.5375 9.56934 41.4685 28.3094 24.1426 56.4219L51.5752 74.0645L82.3174 52.127C91.9032 45.2866 104.593 44.6441 114.821 50.4805L119.47 53.1318C139.128 64.3505 139.908 92.4132 120.904 104.708L117.625 106.829C113.679 109.381 109.286 110.924 104.799 111.457C107.908 112.002 110.957 113.039 113.825 114.573L116.352 115.926C136.973 126.958 137.762 156.234 117.766 168.362L117.025 168.813C107.341 174.686 95.1836 174.643 85.5391 168.706L51.5586 147.789L26.915 163.793C44.6663 189.529 74.3547 206.397 107.983 206.397C162.335 206.397 206.397 162.335 206.397 107.983C206.397 53.6314 162.335 9.56937 107.983 9.56934ZM109.309 123.01C102.683 119.466 94.6528 119.806 88.3506 123.898L60.4414 142.02L90.5547 160.559C97.1423 164.614 105.449 164.64 112.063 160.629L112.804 160.179C126.461 151.895 125.921 131.897 111.836 124.361L109.309 123.01ZM10.6494 122.603C12.4125 134.441 16.2833 145.591 21.8691 155.659L42.5391 142.235L10.6494 122.603ZM13.4072 113.06L51.4219 136.466L83.1396 115.872C87.0862 113.31 91.4958 111.752 96.0088 111.215C92.122 110.534 88.3386 109.087 84.8936 106.871L51.8516 85.623L13.4072 113.06ZM19.5137 64.8262C13.6961 76.7293 10.2092 89.9797 9.64941 103.983L43.1846 80.0488L19.5137 64.8262ZM110.078 58.793C103.093 54.8068 94.4271 55.2469 87.8799 59.918L60.2383 79.6396L90.0713 98.8232C96.8824 103.203 105.627 103.192 112.427 98.7939L115.707 96.6729C128.687 88.275 128.154 69.1059 114.727 61.4434L110.078 58.793Z" fill="#F5F5F5"/>
<path d="M290.472 80.3972H319.904C322.516 80.3972 324.855 80.792 326.921 81.5818C329.047 82.3715 330.839 83.4649 332.297 84.8621C333.755 86.2593 334.848 87.9906 335.577 90.0561C336.367 92.0607 336.762 94.278 336.762 96.7079C336.762 99.1378 336.428 101.203 335.759 102.904C335.152 104.544 334.301 105.911 333.208 107.005C332.175 108.098 330.96 108.918 329.563 109.465C328.227 110.012 326.829 110.315 325.372 110.376V110.923C326.769 110.923 328.257 111.196 329.836 111.743C331.477 112.29 332.965 113.171 334.301 114.386C335.699 115.54 336.853 117.058 337.764 118.942C338.675 120.764 339.131 123.042 339.131 125.776C339.131 128.327 338.706 130.727 337.855 132.974C337.065 135.161 335.942 137.075 334.484 138.715C333.026 140.355 331.294 141.661 329.29 142.633C327.285 143.544 325.098 144 322.729 144H290.472V80.3972ZM302.5 133.794H319.266C321.575 133.794 323.367 133.217 324.643 132.063C325.918 130.848 326.556 129.117 326.556 126.869V123.771C326.556 121.523 325.918 119.792 324.643 118.577C323.367 117.362 321.575 116.755 319.266 116.755H302.5V133.794ZM302.5 106.914H317.353C319.54 106.914 321.241 106.336 322.456 105.182C323.671 103.967 324.278 102.297 324.278 100.171V97.3458C324.278 95.2196 323.671 93.5794 322.456 92.4252C321.241 91.2103 319.54 90.6028 317.353 90.6028H302.5V106.914ZM389.711 80.3972L410.669 144H398.094L388.344 113.019L382.513 91.7874H382.239L376.407 113.019L366.657 144H354.447L375.405 80.3972H389.711ZM448.956 145.093C443.489 145.093 438.842 144.121 435.015 142.178C431.249 140.234 427.999 137.682 425.265 134.523L433.375 126.687C435.562 129.238 437.992 131.182 440.664 132.519C443.398 133.855 446.405 134.523 449.685 134.523C453.391 134.523 456.185 133.734 458.069 132.154C459.952 130.514 460.893 128.327 460.893 125.593C460.893 123.467 460.286 121.736 459.071 120.4C457.856 119.063 455.578 118.091 452.237 117.484L446.223 116.572C433.527 114.568 427.178 108.402 427.178 98.0748C427.178 95.2196 427.695 92.6378 428.728 90.3294C429.821 88.021 431.37 86.0467 433.375 84.4065C435.379 82.7663 437.779 81.521 440.573 80.6705C443.428 79.7593 446.648 79.3037 450.232 79.3037C455.031 79.3037 459.223 80.0934 462.807 81.6729C466.391 83.2523 469.459 85.5911 472.01 88.6892L463.809 96.4346C462.23 94.4906 460.316 92.9112 458.069 91.6963C455.821 90.4813 452.996 89.8738 449.594 89.8738C446.132 89.8738 443.52 90.542 441.758 91.8785C440.057 93.1542 439.206 94.9766 439.206 97.3458C439.206 99.7757 439.905 101.568 441.302 102.722C442.699 103.876 444.947 104.727 448.045 105.273L453.968 106.367C460.407 107.521 465.146 109.586 468.183 112.563C471.281 115.479 472.83 119.579 472.83 124.864C472.83 127.902 472.284 130.666 471.19 133.157C470.157 135.586 468.608 137.713 466.543 139.535C464.538 141.297 462.048 142.664 459.071 143.636C456.155 144.607 452.784 145.093 448.956 145.093ZM514.503 115.206L506.028 125.229V144H494V80.3972H506.028V111.743H506.484L515.505 99.8061L531.269 80.3972H545.12L522.977 106.914L546.942 144H532.636L514.503 115.206ZM564.869 144V80.3972H606.785V91.0584H576.897V106.458H603.322V117.119H576.897V133.339H606.785V144H564.869ZM653.585 91.0584V144H641.557V91.0584H623.515V80.3972H671.628V91.0584H653.585ZM709.293 145.093C703.826 145.093 699.179 144.121 695.352 142.178C691.586 140.234 688.336 137.682 685.602 134.523L693.712 126.687C695.899 129.238 698.329 131.182 701.001 132.519C703.735 133.855 706.742 134.523 710.022 134.523C713.728 134.523 716.522 133.734 718.406 132.154C720.289 130.514 721.23 128.327 721.23 125.593C721.23 123.467 720.623 121.736 719.408 120.4C718.193 119.063 715.915 118.091 712.574 117.484L706.56 116.572C693.864 114.568 687.515 108.402 687.515 98.0748C687.515 95.2196 688.032 92.6378 689.065 90.3294C690.158 88.021 691.707 86.0467 693.712 84.4065C695.716 82.7663 698.116 81.521 700.91 80.6705C703.765 79.7593 706.985 79.3037 710.569 79.3037C715.368 79.3037 719.56 80.0934 723.144 81.6729C726.728 83.2523 729.796 85.5911 732.347 88.6892L724.146 96.4346C722.567 94.4906 720.653 92.9112 718.406 91.6963C716.158 90.4813 713.333 89.8738 709.931 89.8738C706.469 89.8738 703.857 90.542 702.095 91.8785C700.394 93.1542 699.543 94.9766 699.543 97.3458C699.543 99.7757 700.242 101.568 701.639 102.722C703.036 103.876 705.284 104.727 708.382 105.273L714.305 106.367C720.744 107.521 725.483 109.586 728.52 112.563C731.618 115.479 733.167 119.579 733.167 124.864C733.167 127.902 732.621 130.666 731.527 133.157C730.494 135.586 728.945 137.713 726.88 139.535C724.875 141.297 722.385 142.664 719.408 143.636C716.492 144.607 713.121 145.093 709.293 145.093Z" fill="#F5F5F5"/>
</svg>
