<svg width="289" height="43" viewBox="0 0 289 43" fill="none" xmlns="http://www.w3.org/2000/svg">
<path d="M0.000104711 0.712838H19.1879C20.8908 0.712838 22.4155 0.970258 23.762 1.4851C25.1482 1.99994 26.3165 2.7128 27.2669 3.62367C28.2174 4.53455 28.9303 5.66324 29.4055 7.00975C29.9204 8.31666 30.1778 9.76218 30.1778 11.3463C30.1778 12.9304 29.96 14.2769 29.5243 15.3858C29.1283 16.4551 28.5738 17.3462 27.861 18.0591C27.1877 18.7719 26.3957 19.3066 25.4848 19.663C24.6135 20.0194 23.7026 20.2174 22.7522 20.257V20.6135C23.663 20.6135 24.6333 20.7917 25.663 21.1481C26.7323 21.5045 27.7026 22.0788 28.5738 22.8708C29.4847 23.6233 30.2372 24.6134 30.8312 25.8411C31.4253 27.0292 31.7223 28.5143 31.7223 30.2965C31.7223 31.9598 31.4451 33.5241 30.8906 34.9894C30.3758 36.4152 29.6431 37.6627 28.6927 38.7319C27.7422 39.8012 26.6135 40.6527 25.3066 41.2864C23.9997 41.8804 22.574 42.1774 21.0294 42.1774H0.000104711V0.712838ZM7.84155 35.5241H18.772C20.277 35.5241 21.4453 35.1479 22.2769 34.3954C23.1086 33.6033 23.5244 32.4746 23.5244 31.0093V28.9895C23.5244 27.5242 23.1086 26.3955 22.2769 25.6035C21.4453 24.8114 20.277 24.4154 18.772 24.4154H7.84155V35.5241ZM7.84155 17.9997H17.5245C18.9503 17.9997 20.0591 17.6234 20.8512 16.871C21.6433 16.0789 22.0393 14.9898 22.0393 13.6037V11.7621C22.0393 10.376 21.6433 9.30674 20.8512 8.55428C20.0591 7.76221 18.9503 7.36618 17.5245 7.36618H7.84155V17.9997ZM64.6971 0.712838L78.3602 42.1774H70.1623L63.806 21.9798L60.0041 8.13844H59.8259L56.024 21.9798L49.6677 42.1774H41.7074L55.3705 0.712838H64.6971ZM103.321 42.8903C99.7566 42.8903 96.727 42.2566 94.232 40.9893C91.7766 39.722 89.6578 38.0587 87.8757 35.9993L93.1627 30.8905C94.5884 32.5538 96.1725 33.8211 97.9151 34.6924C99.6972 35.5637 101.658 35.9993 103.796 35.9993C106.212 35.9993 108.034 35.4845 109.261 34.4548C110.489 33.3855 111.103 31.9598 111.103 30.1776C111.103 28.7915 110.707 27.6628 109.915 26.7916C109.123 25.9203 107.638 25.2866 105.46 24.8906L101.539 24.2966C93.2617 22.9897 89.1232 18.9699 89.1232 12.2374C89.1232 10.376 89.4598 8.69289 90.1331 7.18797C90.8459 5.68304 91.8558 4.39594 93.1627 3.32665C94.4696 2.25736 96.0339 1.4455 97.8557 0.89105C99.717 0.297002 101.816 -2.19881e-05 104.153 -2.19881e-05C107.281 -2.19881e-05 110.014 0.514821 112.35 1.54451C114.687 2.57419 116.687 4.09891 118.35 6.11868L113.004 11.1681C111.974 9.90079 110.727 8.8711 109.261 8.07904C107.796 7.28697 105.955 6.89094 103.737 6.89094C101.479 6.89094 99.7764 7.32658 98.6279 8.19785C97.5191 9.02952 96.9646 10.2176 96.9646 11.7621C96.9646 13.3463 97.42 14.5146 98.3309 15.267C99.2418 16.0195 100.707 16.5739 102.727 16.9304L106.588 17.6432C110.786 18.3957 113.875 19.7422 115.855 21.6828C117.875 23.5837 118.885 26.2569 118.885 29.7024C118.885 31.6826 118.529 33.4845 117.816 35.1083C117.142 36.6924 116.133 38.0785 114.786 39.2666C113.479 40.4151 111.855 41.3062 109.915 41.9398C108.014 42.5735 105.816 42.8903 103.321 42.8903ZM146.053 23.4055L140.528 29.94V42.1774H132.686V0.712838H140.528V21.1481H140.825L146.706 13.3661L156.983 0.712838H166.013L151.577 17.9997L167.201 42.1774H157.874L146.053 23.4055ZM178.888 42.1774V0.712838H206.214V7.66321H186.729V17.7026H203.956V24.653H186.729V35.2271H206.214V42.1774H178.888ZM236.725 7.66321V42.1774H228.883V7.66321H217.121V0.712838H248.487V7.66321H236.725ZM273.042 42.8903C269.478 42.8903 266.449 42.2566 263.954 40.9893C261.498 39.722 259.379 38.0587 257.597 35.9993L262.884 30.8905C264.31 32.5538 265.894 33.8211 267.637 34.6924C269.419 35.5637 271.379 35.9993 273.518 35.9993C275.934 35.9993 277.755 35.4845 278.983 34.4548C280.211 33.3855 280.825 31.9598 280.825 30.1776C280.825 28.7915 280.428 27.6628 279.636 26.7916C278.844 25.9203 277.359 25.2866 275.181 24.8906L271.26 24.2966C262.983 22.9897 258.845 18.9699 258.845 12.2374C258.845 10.376 259.181 8.69289 259.855 7.18797C260.567 5.68304 261.577 4.39594 262.884 3.32665C264.191 2.25736 265.755 1.4455 267.577 0.89105C269.439 0.297002 271.538 -2.19881e-05 273.874 -2.19881e-05C277.003 -2.19881e-05 279.735 0.514821 282.072 1.54451C284.409 2.57419 286.409 4.09891 288.072 6.11868L282.725 11.1681C281.696 9.90079 280.448 8.8711 278.983 8.07904C277.518 7.28697 275.676 6.89094 273.458 6.89094C271.201 6.89094 269.498 7.32658 268.349 8.19785C267.241 9.02952 266.686 10.2176 266.686 11.7621C266.686 13.3463 267.142 14.5146 268.052 15.267C268.963 16.0195 270.429 16.5739 272.448 16.9304L276.31 17.6432C280.508 18.3957 283.597 19.7422 285.577 21.6828C287.597 23.5837 288.607 26.2569 288.607 29.7024C288.607 31.6826 288.25 33.4845 287.537 35.1083C286.864 36.6924 285.854 38.0785 284.508 39.2666C283.201 40.4151 281.577 41.3062 279.636 41.9398C277.735 42.5735 275.537 42.8903 273.042 42.8903Z" fill="#F5F5F5"/>
</svg>
