<svg width="7" height="7" viewBox="0 0 7 7" fill="none" xmlns="http://www.w3.org/2000/svg">
<g clip-path="url(#clip0_2076_73)">
<rect x="-32.5" y="-75" width="285" height="353" rx="20" fill="#292F29"/>
<path d="M0 4H218V320C218 331.598 208.598 341 197 341H21C9.40202 341 0 331.598 0 320V4Z" fill="#FBF5EE"/>
<path d="M203.552 0.213603C204.045 -0.0710993 204.844 -0.071163 205.337 0.213603L211 3.48452C211.15 3.57127 211.372 3.57127 211.522 3.48452L217.186 0.213603C217.588 -0.0186061 218 0.386937 218 0.851213V7.14807C218 7.61218 217.587 8.01854 217.186 7.78652L211.522 4.5156C211.372 4.42883 211.15 4.42887 211 4.5156L205.337 7.78652C204.844 8.07114 204.045 8.07105 203.552 7.78652L197.889 4.5156C197.738 4.42867 197.516 4.42865 197.365 4.5156L191.702 7.78652C191.209 8.07115 190.41 8.07106 189.917 7.78652L184.254 4.5156C184.103 4.42867 183.881 4.42867 183.73 4.5156L178.068 7.78652C177.575 8.07118 176.775 8.07115 176.282 7.78652L170.619 4.5156C170.469 4.42886 170.247 4.42884 170.097 4.5156L164.434 7.78652C163.941 8.07118 163.141 8.07115 162.647 7.78652L156.984 4.5156C156.834 4.42885 156.612 4.42885 156.462 4.5156L150.799 7.78652C150.306 8.07118 149.506 8.07115 149.013 7.78652L143.351 4.5156C143.2 4.42867 142.978 4.42866 142.827 4.5156L137.164 7.78652C136.671 8.07112 135.872 8.0711 135.379 7.78652L129.716 4.5156C129.565 4.42866 129.343 4.42867 129.192 4.5156L123.529 7.78652C123.036 8.07111 122.237 8.07111 121.744 7.78652L116.081 4.5156C115.931 4.42866 115.708 4.42867 115.558 4.5156L109.895 7.78652C109.401 8.0711 108.602 8.07111 108.109 7.78652L102.446 4.5156C102.296 4.42886 102.074 4.42885 101.924 4.5156L96.2607 7.78652C95.7677 8.07118 94.9677 8.07115 94.4746 7.78652L88.8125 4.5156C88.662 4.42867 88.4395 4.42864 88.2891 4.5156L82.626 7.78652C82.1329 8.07118 81.3329 8.07115 80.8398 7.78652L75.1777 4.5156C75.0272 4.42867 74.8048 4.42865 74.6543 4.5156L68.9912 7.78652C68.4982 8.07118 67.6981 8.07115 67.2051 7.78652L61.543 4.5156C61.3925 4.42867 61.17 4.42867 61.0195 4.5156L55.3564 7.78652C54.8634 8.07111 54.0643 8.07112 53.5713 7.78652L47.9082 4.5156C47.7577 4.42864 47.5353 4.42868 47.3848 4.5156L41.7227 7.78652C41.2296 8.07118 40.4296 8.07115 39.9365 7.78652L34.2734 4.5156C34.123 4.42867 33.9004 4.42871 33.75 4.5156L28.0879 7.78652C27.5949 8.07118 26.7948 8.07115 26.3018 7.78652L20.6387 4.5156C20.4886 4.42884 20.2663 4.42887 20.1162 4.5156L14.4531 7.78652C13.9601 8.07114 13.161 8.07108 12.668 7.78652L7.00488 4.5156C6.8544 4.42867 6.63193 4.42866 6.48145 4.5156L0.818359 7.78652C0.414331 8.01976 0 7.61071 0 7.14419V1.85509C0 1.38842 0.414225 0.980228 0.818359 1.2136L6.48145 3.48452C6.63182 3.57144 6.8545 3.57142 7.00488 3.48452L12.668 1.2136C13.1611 0.928877 13.9601 0.928857 14.4531 1.2136L20.1162 3.48452C20.2662 3.57123 20.4887 3.57124 20.6387 3.48452L26.3018 0.213603C26.7949 -0.071204 27.5948 -0.0711979 28.0879 0.213603L33.75 3.48452C33.9003 3.57139 34.1231 3.57142 34.2734 3.48452L39.9365 0.213603C40.4296 -0.071204 41.2296 -0.0711979 41.7227 0.213603L47.3848 3.48452C47.5352 3.57143 47.7578 3.57143 47.9082 3.48452L53.5713 0.213603C54.0643 -0.0711348 54.8633 -0.0710647 55.3564 0.213603L61.0195 3.48452C61.1696 3.57125 61.3929 3.57123 61.543 3.48452L67.2051 0.213603C67.6982 -0.071204 68.4981 -0.0711979 68.9912 0.213603L74.6543 3.48452C74.8047 3.57145 75.0273 3.57141 75.1777 3.48452L80.8398 0.213603C81.3329 -0.071204 82.1329 -0.0711979 82.626 0.213603L88.2891 3.48452C88.4394 3.57145 88.6621 3.57141 88.8125 3.48452L94.4746 0.213603C94.9677 -0.071204 95.7676 -0.0711979 96.2607 0.213603L101.924 3.48452C102.074 3.57125 102.296 3.57122 102.446 3.48452L108.109 0.213603C108.602 -0.0711572 109.401 -0.0711077 109.895 0.213603L115.558 3.48452C115.708 3.57143 115.931 3.57143 116.081 3.48452L121.744 0.213603C122.237 -0.0711499 123.036 -0.0711151 123.529 0.213603L129.192 3.48452C129.343 3.57143 129.565 3.57143 129.716 3.48452L135.379 0.213603C135.872 -0.0711411 136.671 -0.0711239 137.164 0.213603L142.827 3.48452C142.978 3.57144 143.2 3.57142 143.351 3.48452L149.013 0.213603C149.506 -0.071204 150.306 -0.0711979 150.799 0.213603L156.462 3.48452C156.612 3.57127 156.834 3.57127 156.984 3.48452L162.647 0.213603C163.141 -0.071204 163.94 -0.0711979 164.434 0.213603L170.097 3.48452C170.247 3.57129 170.469 3.57125 170.619 3.48452L176.282 0.213603C176.775 -0.0711937 177.575 -0.0711945 178.068 0.213603L183.73 3.48452C183.881 3.57125 184.104 3.57123 184.254 3.48452L189.917 0.213603C190.41 -0.0711088 191.209 -0.0711562 191.702 0.213603L197.365 3.48452C197.516 3.57144 197.738 3.57141 197.889 3.48452L203.552 0.213603Z" fill="#FBF5EE"/>
</g>
<defs>
<clipPath id="clip0_2076_73">
<rect x="-32.5" y="-75" width="285" height="353" rx="20" fill="white"/>
</clipPath>
</defs>
</svg>
