<svg width="34" height="33" viewBox="0 0 34 33" fill="none" xmlns="http://www.w3.org/2000/svg">
<path d="M0.541016 19.462L19.702 31.0141C20.3388 31.398 21.136 31.3969 21.7718 31.0114L30.5417 25.6927C31.8664 24.8894 31.8141 22.9499 30.4481 22.2191L21.0582 17.1958C20.4156 16.852 19.6368 16.885 19.0255 17.2819L0.721343 29.1679" stroke="#F9F5EF" stroke-width="2"/>
<path d="M0.541016 3.65025L19.6527 15.9407C20.3133 16.3656 21.1614 16.3644 21.8208 15.9378L30.7796 10.1425C32.0385 9.32807 31.9868 7.46925 30.6845 6.72613L21.1107 1.26294C20.442 0.881343 19.6136 0.917493 18.9807 1.35589L0.721343 14.0032" stroke="#F9F5EF" stroke-width="2"/>
<line x1="9.54102" y1="1.63849" x2="9.54101" y2="30.6385" stroke="#F9F5EF" stroke-width="2"/>
</svg>
