<svg width="95" height="17" viewBox="0 0 95 17" fill="none" xmlns="http://www.w3.org/2000/svg">
<g clip-path="url(#clip0_2066_107)">
<path d="M40.6994 17H39.6933C38.7507 16.8523 37.9002 16.4501 37.2076 15.7662L37.2006 16.7424L35.2275 16.7403V1.13033L37.1387 0H37.1663L37.1758 5.89333C37.9241 5.04548 38.9087 4.61104 39.9829 4.61361C41.2097 4.5651 42.3841 5.04677 43.2277 5.96717C44.5167 7.37869 44.8072 9.31136 44.7589 11.1921C44.716 12.8706 44.3468 14.62 43.1534 15.8272C42.5941 16.3934 41.8998 16.7433 41.1371 16.9064L40.6994 17ZM42.1572 13.7155C42.4616 13.1252 42.62 12.51 42.6898 11.8493C42.8098 10.7109 42.7607 9.28217 42.3334 8.21752C41.906 7.15288 41.0732 6.50551 39.9091 6.47245C39.2771 6.45442 38.6819 6.62227 38.1629 6.99361C37.7525 7.26793 37.4208 7.60922 37.1663 8.05311V13.5313C37.573 14.2341 38.1955 14.7488 38.9438 14.9956C39.2359 15.0918 39.5147 15.115 39.8158 15.1291C40.8017 15.1764 41.6845 14.6329 42.1576 13.7159L42.1572 13.7155Z" fill="#F9F5EF"/>
<path d="M68.353 17H67.1897C67.1844 16.9936 67.1328 16.9635 67.113 16.9614C65.6552 16.8021 64.3905 15.9032 64.0027 14.3912C63.7928 13.5717 63.7742 12.726 63.9598 11.8983C64.1388 11.1002 64.5897 10.4323 65.2382 9.97336C66.0479 9.40068 66.9835 9.1152 67.9665 9.1006C69.0576 9.08429 70.0991 9.29979 71.0751 9.86088L71.0735 8.70136C71.0727 8.31156 70.9893 7.94151 70.8536 7.58649C70.5154 6.70043 69.5992 6.40765 68.7408 6.37846C67.4785 6.36429 66.2777 6.77899 65.2501 7.55987L64.6858 5.86459C65.9386 5.01373 67.3894 4.59131 68.8789 4.61449C69.4775 4.61535 70.0356 4.6879 70.5966 4.86734C71.5837 5.18287 72.3225 5.92555 72.6501 6.93954C72.8398 7.52638 72.9306 8.12611 72.9314 8.7649L72.9388 16.7429L71.0751 16.7446L71.0582 15.7087C70.2926 16.4338 69.369 16.8493 68.353 17.0005V17ZM69.8421 14.757C70.3318 14.4715 70.727 14.0959 71.0751 13.6657L71.0727 11.6296C70.298 11.1462 69.4602 10.8663 68.565 10.8543C67.7846 10.7967 67.0342 10.9934 66.4035 11.4609C65.9456 11.8476 65.6886 12.4053 65.727 13.0226C65.6915 13.694 65.9757 14.3169 66.4881 14.7291C66.8639 15.0313 67.3184 15.1635 67.7945 15.2039C68.5155 15.2704 69.2007 15.1335 69.8417 14.7565L69.8421 14.757Z" fill="#F9F5EF"/>
<path d="M95.0001 16.6853V16.6995H92.9049L89.3908 9.58184L87.6983 11.3887V16.742H85.8008V1.21578L87.74 0.0858765L87.6987 8.49186L87.7049 8.91386C87.7016 8.92115 87.7429 8.90999 87.7577 8.89883L91.2925 4.99999C91.4018 4.87936 91.4525 4.89353 91.6179 4.89396L93.5117 4.89825C93.5806 4.89825 93.6483 4.88022 93.6928 4.92358L90.7335 8.1158L95.0005 16.6849L95.0001 16.6853Z" fill="#F9F5EF"/>
<path d="M28.4246 17H27.0266C27.0113 16.9888 26.9565 16.9626 26.9309 16.9592C25.7462 16.8141 24.7335 16.2556 24.1729 15.1287C23.7332 14.2443 23.6061 13.2677 23.5537 12.2692V4.89392L25.4925 4.89736V12.3739C25.5436 13.1411 25.7008 13.9434 26.2527 14.4783C26.7267 14.9377 27.3327 15.1519 27.9733 15.1227C28.3788 15.1042 28.7583 15.0694 29.137 14.9119C30.1666 14.4835 30.5086 13.469 30.5659 12.3795V4.89392L32.5047 4.89478V16.7424L30.6253 16.7428L30.6071 15.6743C30.0342 16.4342 29.2793 16.8274 28.4242 17H28.4246Z" fill="#F9F5EF"/>
<path d="M10.2062 17H10.1918L5.12126 14.0387L0.0532132 17H0V10.3459L10.2301 10.355L10.233 16.824C10.233 16.8957 10.2206 16.9532 10.2058 17H10.2062Z" fill="#F9F5EF"/>
<path d="M51.0679 17H49.7755C49.1869 17 48.635 16.7403 48.0966 16.4939C47.3797 16.1526 46.7626 15.6774 46.249 15.0154L47.6297 13.7816C47.9762 14.1572 48.34 14.4796 48.7678 14.7342C49.2232 14.9922 49.6934 15.1644 50.214 15.1888C50.7919 15.2459 51.3402 15.1369 51.8554 14.8677C52.2873 14.6419 52.5484 14.186 52.5294 13.682C52.5146 13.2905 52.3652 12.9582 52.1054 12.6865C51.8112 12.3791 51.4924 12.1185 51.1038 11.9532L49.9117 11.4462C49.4109 11.2333 48.9245 11.038 48.4502 10.768C48.0026 10.5134 47.588 10.2352 47.2192 9.86817C46.6256 9.27703 46.3719 8.46352 46.4012 7.62039C46.4342 6.66951 46.8785 5.8487 47.6495 5.33355C48.1049 5.02918 48.5974 4.82011 49.1394 4.71665C49.9125 4.56898 50.6863 4.57542 51.4586 4.74284C52.4911 4.97251 53.3977 5.54776 54.0697 6.40163L52.7332 7.55986C52.1148 6.88072 51.3055 6.47203 50.4116 6.42953C49.783 6.35698 48.762 6.56605 48.4489 7.20269C48.1837 7.74231 48.3507 8.40728 48.8457 8.75329C49.415 9.15082 50.0305 9.43201 50.6764 9.68314C51.6825 10.0747 52.8607 10.5902 53.6292 11.3866C53.9872 11.7575 54.212 12.2177 54.3267 12.726C54.3919 13.0157 54.4125 13.2948 54.4253 13.5957C54.4529 14.2379 54.3032 14.8669 53.9637 15.4035C53.3713 16.3402 52.3599 16.7987 51.3162 16.9446C51.2234 16.9575 51.1401 16.9708 51.0683 17.0009L51.0679 17Z" fill="#F9F5EF"/>
<path d="M18.3154 17H17.0503C16.4562 17 15.8874 16.7372 15.326 16.4818C14.621 16.1414 14.0109 15.6653 13.5068 15.0145L14.897 13.7777C15.2031 14.1194 15.5009 14.3916 15.8569 14.6303C16.3197 14.9231 16.8065 15.1308 17.3501 15.1776C17.9883 15.2562 18.6165 15.1587 19.1755 14.8312C19.8978 14.4079 19.9683 13.3991 19.4482 12.7878C19.1346 12.4194 18.7712 12.1249 18.3323 11.939L17.1435 11.4359C16.1724 11.0251 15.602 10.7937 14.7505 10.118C14.0084 9.52942 13.6314 8.63821 13.6578 7.66972C13.6813 6.80985 14.0192 6.03626 14.6771 5.50909C15.1692 5.11457 15.7224 4.85485 16.3416 4.72735C17.0965 4.57194 17.8575 4.5728 18.6157 4.72177C19.4939 4.89391 20.281 5.31805 20.9249 5.95212L21.3308 6.39429L19.9877 7.56197C19.3813 6.87768 18.5679 6.48573 17.6851 6.4252C17.1447 6.38828 16.6435 6.46556 16.1691 6.72742C15.7876 6.93778 15.5652 7.32543 15.5846 7.78864C15.6007 8.17629 15.781 8.52401 16.1015 8.75111C17.5255 9.76081 19.0187 9.82434 20.5937 11.1096C20.9724 11.4183 21.2611 11.7991 21.4447 12.261C21.6229 12.7096 21.6691 13.1647 21.6852 13.6506C21.7206 14.7166 21.2318 15.7009 20.3709 16.2848C19.8549 16.6346 19.2815 16.839 18.6665 16.9304C18.5394 16.9493 18.4206 16.9575 18.3158 17.0008L18.3154 17Z" fill="#F9F5EF"/>
<path d="M80.3565 17H79.0641C78.9672 16.9781 78.8422 16.9451 78.7411 16.9283C77.1629 16.666 76.0157 15.525 75.4435 14.0147C74.9572 12.7307 74.859 11.1887 74.9745 9.82267C75.0933 8.42189 75.4848 7.05158 76.4203 6.00669C76.9785 5.38378 77.6694 4.95964 78.4746 4.76431C79.3611 4.54924 80.2822 4.55997 81.1625 4.79694C82.4413 5.14123 83.3001 6.10413 83.7262 7.37656L81.8988 8.07201C81.6093 7.28941 81.0734 6.68497 80.2579 6.54158C79.2138 6.35828 78.1789 6.69999 77.6055 7.67363C77.3336 8.13512 77.1567 8.62709 77.061 9.16972C76.7895 10.7066 76.8122 12.99 77.8253 14.2513C78.3067 14.8505 79.0101 15.1438 79.7505 15.1094C80.5689 15.0712 81.1889 14.8355 81.6596 14.1195C81.813 13.8821 81.91 13.6404 82.0127 13.3472L83.819 13.9726C83.5559 14.9364 83.001 15.7589 82.2082 16.2951C81.6328 16.6845 81.0074 16.8656 80.3573 17.0004L80.3565 17Z" fill="#F9F5EF"/>
<path d="M59.4835 0L59.4765 4.89394L62.2886 4.89566V6.65404L59.4835 6.65533L59.4819 13.5575C59.4819 13.9877 59.5475 14.3809 59.7537 14.7496C59.8824 14.9398 60.0812 15.0429 60.304 15.0952C60.799 15.1695 61.2858 15.0819 61.763 14.8389L62.2952 16.4539C61.7643 16.73 61.2033 16.8983 60.6175 16.9687L60.5631 17H59.4629L59.0896 16.8991C57.9907 16.6025 57.6095 15.5911 57.5448 14.4959V6.65404L55.6885 6.65146V4.89394L57.5448 4.89136L57.5456 1.12775L59.3763 0.0596717C59.3957 0.0485101 59.4254 0.0120202 59.4287 0L59.4835 0Z" fill="#F9F5EF"/>
<path d="M0 6.34497V4.89396L10.2301 4.88623L10.2272 6.35355L0 6.34497Z" fill="#F9F5EF"/>
<path d="M0 9.0495V7.59849L10.2301 7.59076L10.2244 9.05808L0 9.0495Z" fill="#F9F5EF"/>
</g>
<defs>
<clipPath id="clip0_2066_107">
<rect width="95" height="17" fill="white"/>
</clipPath>
</defs>
</svg>
