<svg width="774" height="216" viewBox="0 0 774 216" fill="none" xmlns="http://www.w3.org/2000/svg">
<path d="M272.216 82.2363H301.648C304.26 82.2363 306.599 82.6312 308.664 83.4209C310.79 84.2106 312.582 85.304 314.04 86.7012C315.498 88.0984 316.592 89.8298 317.321 91.8952C318.11 93.8998 318.505 96.1171 318.505 98.547C318.505 100.977 318.171 103.042 317.503 104.743C316.896 106.383 316.045 107.75 314.952 108.844C313.919 109.937 312.704 110.757 311.307 111.304C309.97 111.851 308.573 112.155 307.115 112.215V112.762C308.512 112.762 310.001 113.035 311.58 113.582C313.22 114.129 314.709 115.01 316.045 116.225C317.442 117.379 318.596 118.898 319.508 120.781C320.419 122.603 320.875 124.881 320.875 127.615C320.875 130.166 320.449 132.566 319.599 134.813C318.809 137 317.685 138.914 316.227 140.554C314.769 142.194 313.038 143.5 311.033 144.472C309.029 145.384 306.842 145.839 304.473 145.839H272.216V82.2363ZM284.244 135.634H301.01C303.318 135.634 305.11 135.056 306.386 133.902C307.662 132.687 308.3 130.956 308.3 128.708V125.61C308.3 123.362 307.662 121.631 306.386 120.416C305.11 119.201 303.318 118.594 301.01 118.594H284.244V135.634ZM284.244 108.753H299.096C301.283 108.753 302.984 108.176 304.199 107.021C305.414 105.806 306.022 104.136 306.022 102.01V99.1849C306.022 97.0587 305.414 95.4185 304.199 94.2643C302.984 93.0494 301.283 92.4419 299.096 92.4419H284.244V108.753ZM371.455 82.2363L392.413 145.839H379.838L370.088 114.858L364.256 93.6265H363.983L358.151 114.858L348.401 145.839H336.191L357.149 82.2363H371.455ZM430.7 146.933C425.233 146.933 420.586 145.961 416.759 144.017C412.992 142.073 409.742 139.521 407.009 136.362L415.118 128.526C417.305 131.077 419.735 133.021 422.408 134.358C425.142 135.694 428.149 136.362 431.429 136.362C435.135 136.362 437.929 135.573 439.812 133.993C441.695 132.353 442.637 130.166 442.637 127.433C442.637 125.306 442.03 123.575 440.815 122.239C439.6 120.902 437.322 119.93 433.981 119.323L427.966 118.412C415.27 116.407 408.922 110.241 408.922 99.9139C408.922 97.0587 409.438 94.477 410.471 92.1685C411.565 89.8601 413.114 87.8858 415.118 86.2456C417.123 84.6054 419.523 83.3601 422.317 82.5097C425.172 81.5984 428.392 81.1428 431.976 81.1428C436.775 81.1428 440.966 81.9326 444.551 83.512C448.135 85.0914 451.202 87.4302 453.754 90.5283L445.553 98.2737C443.974 96.3298 442.06 94.7503 439.812 93.5354C437.565 92.3204 434.74 91.7129 431.338 91.7129C427.875 91.7129 425.263 92.3812 423.502 93.7176C421.801 94.9933 420.95 96.8157 420.95 99.1849C420.95 101.615 421.649 103.407 423.046 104.561C424.443 105.715 426.691 106.566 429.789 107.112L435.712 108.206C442.151 109.36 446.889 111.426 449.927 114.402C453.025 117.318 454.574 121.419 454.574 126.704C454.574 129.741 454.027 132.505 452.934 134.996C451.901 137.426 450.352 139.552 448.287 141.374C446.282 143.136 443.791 144.503 440.815 145.475C437.899 146.447 434.527 146.933 430.7 146.933ZM496.246 117.045L487.772 127.068V145.839H475.744V82.2363H487.772V113.582H488.228L497.249 101.645L513.013 82.2363H526.863L504.721 108.753L528.686 145.839H514.38L496.246 117.045ZM546.612 145.839V82.2363H588.528V92.8975H558.64V108.297H585.066V118.958H558.64V135.178H588.528V145.839H546.612ZM635.329 92.8975V145.839H623.301V92.8975H605.259V82.2363H653.371V92.8975H635.329ZM691.037 146.933C685.57 146.933 680.923 145.961 677.096 144.017C673.329 142.073 670.079 139.521 667.346 136.362L675.455 128.526C677.642 131.077 680.072 133.021 682.745 134.358C685.479 135.694 688.486 136.362 691.766 136.362C695.472 136.362 698.266 135.573 700.149 133.993C702.032 132.353 702.974 130.166 702.974 127.433C702.974 125.306 702.367 123.575 701.152 122.239C699.937 120.902 697.659 119.93 694.318 119.323L688.303 118.412C675.607 116.407 669.259 110.241 669.259 99.9139C669.259 97.0587 669.775 94.477 670.808 92.1685C671.902 89.8601 673.451 87.8858 675.455 86.2456C677.46 84.6054 679.86 83.3601 682.654 82.5097C685.509 81.5984 688.729 81.1428 692.313 81.1428C697.112 81.1428 701.304 81.9326 704.888 83.512C708.472 85.0914 711.539 87.4302 714.091 90.5283L705.89 98.2737C704.311 96.3298 702.397 94.7503 700.149 93.5354C697.902 92.3204 695.077 91.7129 691.675 91.7129C688.212 91.7129 685.6 92.3812 683.839 93.7176C682.138 94.9933 681.287 96.8157 681.287 99.1849C681.287 101.615 681.986 103.407 683.383 104.561C684.78 105.715 687.028 106.566 690.126 107.112L696.049 108.206C702.488 109.36 707.226 111.426 710.264 114.402C713.362 117.318 714.911 121.419 714.911 126.704C714.911 129.741 714.364 132.505 713.271 134.996C712.238 137.426 710.689 139.552 708.624 141.374C706.619 143.136 704.128 144.503 701.152 145.475C698.236 146.447 694.864 146.933 691.037 146.933Z" fill="#F5F5F5"/>
<path fill-rule="evenodd" clip-rule="evenodd" d="M110.877 9.74292C163.966 9.74292 207.002 52.7797 207.002 105.868C207.002 158.957 163.966 201.993 110.877 201.993C57.7888 201.993 14.7521 158.957 14.752 105.868C14.752 52.7797 57.7887 9.74292 110.877 9.74292ZM122.039 165.008C121.709 165.144 121.709 165.61 122.039 165.747L145.867 175.615C146.196 175.751 146.196 176.218 145.867 176.354L133.739 181.377C133.641 181.418 133.53 181.418 133.432 181.377L108.126 170.897C108.028 170.856 107.918 170.856 107.82 170.897L75.1146 184.442C74.7928 184.575 74.7837 185.026 75.101 185.17C86.0132 190.1 98.1245 192.846 110.877 192.846C117.447 192.846 123.846 192.116 129.999 190.735C130.021 190.73 130.043 190.723 130.064 190.714L142.963 185.373C142.984 185.364 142.984 185.334 142.963 185.325C142.942 185.316 142.942 185.286 142.963 185.277L156.021 179.869C156.058 179.853 156.099 179.853 156.136 179.869C156.173 179.884 156.214 179.884 156.251 179.869L157.259 179.451C157.28 179.442 157.3 179.432 157.319 179.419C165.347 174.34 172.486 167.983 178.45 160.634C178.618 160.427 178.538 160.117 178.292 160.015L156.345 150.926C156.247 150.885 156.137 150.885 156.039 150.926L122.039 165.008ZM170.259 105.093C169.93 105.229 169.93 105.696 170.259 105.832L194.698 115.954C195.027 116.09 195.027 116.557 194.698 116.693L182.569 121.716C182.471 121.757 182.361 121.757 182.263 121.716L156.346 110.982C156.248 110.941 156.138 110.941 156.04 110.982L122.039 125.064C121.709 125.201 121.709 125.667 122.039 125.804L146.477 135.926C146.807 136.062 146.807 136.528 146.477 136.665L134.35 141.688C134.252 141.729 134.142 141.729 134.044 141.688L108.126 130.953C108.028 130.913 107.918 130.913 107.82 130.953L73.8196 145.037C73.4904 145.173 73.4904 145.639 73.8196 145.776L98.2584 155.897C98.5877 156.034 98.5877 156.5 98.2585 156.636L86.1302 161.66C86.0322 161.7 85.9221 161.7 85.8241 161.66L59.9068 150.926C59.8088 150.885 59.6987 150.885 59.6007 150.926L42.0306 158.201C41.7884 158.302 41.7065 158.604 41.8662 158.812C47.8246 166.567 55.0599 173.289 63.2589 178.663C63.3692 178.735 63.5083 178.748 63.6303 178.698L195.791 123.959C195.913 123.909 196.002 123.801 196.029 123.672C197.225 117.925 197.855 111.97 197.855 105.868C197.855 102.019 197.604 98.2272 197.119 94.5097C197.085 94.2497 196.813 94.0938 196.571 94.1941L170.259 105.093ZM170.258 145.037C169.929 145.173 169.929 145.639 170.258 145.776L184.449 151.652C184.629 151.727 184.838 151.66 184.941 151.494C187.825 146.821 190.281 141.854 192.251 136.649C192.374 136.324 192.049 136.011 191.727 136.144L170.258 145.037ZM122.039 85.1212C121.709 85.2576 121.709 85.724 122.039 85.8603L146.468 95.9786C146.797 96.115 146.797 96.5813 146.468 96.7177L134.34 101.741C134.242 101.781 134.132 101.781 134.034 101.741L108.126 91.0103C108.028 90.9697 107.918 90.9697 107.82 91.0103L73.8196 105.093C73.4903 105.229 73.4903 105.696 73.8196 105.832L98.2489 115.95C98.5782 116.087 98.5782 116.553 98.2489 116.689L86.1206 121.712C86.0226 121.753 85.9125 121.753 85.8145 121.712L59.9062 110.982C59.8082 110.941 59.6981 110.941 59.6001 110.982L26.3002 124.774C26.1207 124.848 26.0204 125.041 26.0636 125.23C26.1128 125.447 26.1629 125.663 26.2137 125.878C26.2432 126.003 26.331 126.106 26.4496 126.155L50.0293 135.922C50.3586 136.058 50.3586 136.525 50.0293 136.661L37.9011 141.684C37.8031 141.725 37.6929 141.725 37.5949 141.684L31.1782 139.026C30.85 138.89 30.522 139.217 30.6596 139.545C32.1619 143.119 33.8959 146.572 35.8432 149.884C35.944 150.056 36.1559 150.126 36.3397 150.05L194.831 84.4054C195.015 84.3292 195.115 84.1295 195.065 83.9369C194.526 81.863 193.913 79.8193 193.228 77.8086C193.154 77.5906 192.91 77.4814 192.698 77.5695L182.559 81.7693C182.461 81.8099 182.351 81.8099 182.253 81.7693L156.345 71.0393C156.247 70.9987 156.137 70.9987 156.039 71.0393L122.039 85.1212ZM122.039 45.178C121.709 45.3144 121.709 45.7808 122.039 45.9171L146.459 56.031C146.788 56.1673 146.788 56.6337 146.459 56.7701L134.331 61.7939C134.233 61.8345 134.123 61.8345 134.025 61.7939L108.126 51.0677C108.028 51.0272 107.918 51.0272 107.82 51.0677L73.819 65.1496C73.4898 65.286 73.4898 65.7524 73.819 65.8887L98.2393 76.0026C98.5686 76.1389 98.5686 76.6053 98.2393 76.7417L86.1111 81.7648C86.0131 81.8054 85.903 81.8054 85.805 81.7648L59.9062 71.0387C59.8082 70.9981 59.6981 70.9981 59.6001 71.0387L26.6672 84.6786C26.5501 84.7271 26.4628 84.8283 26.4324 84.9514C26.3656 85.221 26.2999 85.4911 26.2357 85.7616C26.1905 85.952 26.2907 86.1467 26.4715 86.2216L50.0191 95.9741C50.3484 96.1105 50.3484 96.5769 50.0191 96.7133L37.8915 101.736C37.7935 101.777 37.6834 101.777 37.5854 101.736L24.9151 96.489C24.6688 96.387 24.3935 96.5499 24.3661 96.8151C24.0582 99.7908 23.8993 102.811 23.8993 105.868C23.8993 108.788 24.0443 111.674 24.3255 114.52C24.3518 114.786 24.6277 114.95 24.8747 114.848L178.04 51.4096C178.287 51.3073 178.366 50.9962 178.196 50.7895C171.907 43.1112 164.329 36.529 155.794 31.3717C155.685 31.3061 155.552 31.2962 155.435 31.3447L122.039 45.178ZM170.259 65.1496C169.929 65.286 169.929 65.7523 170.259 65.8887L191.355 74.6259C191.679 74.7601 192.005 74.4425 191.877 74.116C189.879 69.0233 187.414 64.1653 184.536 59.5936C184.432 59.4291 184.225 59.3638 184.045 59.4381L170.259 65.1496ZM110.877 18.8903C98.4931 18.8903 86.7137 21.4786 76.05 26.1435C75.7288 26.284 75.7354 26.7391 76.0592 26.8733L98.2304 36.0562C98.5596 36.1925 98.5596 36.6589 98.2303 36.7953L86.1009 41.8185C86.0029 41.8591 85.8927 41.8591 85.7947 41.8185L64.0049 32.793C63.8836 32.7428 63.7453 32.7552 63.6352 32.8266C55.5001 38.0991 48.3022 44.694 42.3443 52.3065C42.1819 52.514 42.2629 52.8188 42.5065 52.9197L50.0102 56.0278C50.3395 56.1641 50.3395 56.6305 50.0102 56.7669L37.8826 61.79C37.7846 61.8306 37.6744 61.8306 37.5764 61.79L36.5348 61.3584C36.3517 61.2825 36.1404 61.3522 36.0392 61.5226C34.1072 64.7761 32.381 68.1659 30.8792 71.6748C30.739 72.0025 31.0675 72.332 31.3968 72.1956L143.273 25.8579C143.602 25.7216 143.602 25.2567 143.271 25.1239C133.259 21.1034 122.327 18.8903 110.877 18.8903Z" fill="#F5F5F5"/>
</svg>
