<svg width="14" height="7" viewBox="0 0 14 7" fill="none" xmlns="http://www.w3.org/2000/svg">
<g clip-path="url(#clip0_2076_73)">
<rect x="-39.2832" y="-75.0005" width="285" height="353" rx="20" fill="#292F29"/>
<path d="M-6.7832 3.99951H211.217V320C211.217 331.598 201.815 341 190.217 341H14.2168C2.61882 341 -6.7832 331.597 -6.7832 320V3.99951Z" fill="#FBF5EE"/>
<path d="M196.769 0.213115C197.262 -0.0715876 198.061 -0.0716513 198.554 0.213115L204.217 3.48403C204.367 3.57078 204.589 3.57079 204.739 3.48403L210.402 0.213115C210.804 -0.0190943 211.217 0.386449 211.217 0.850725V7.14759C211.217 7.6117 210.804 8.01806 210.402 7.78603L204.739 4.51511C204.589 4.42834 204.367 4.42838 204.217 4.51511L198.554 7.78603C198.061 8.07066 197.262 8.07056 196.769 7.78603L191.105 4.51511C190.955 4.42819 190.733 4.42817 190.582 4.51511L184.919 7.78603C184.426 8.07066 183.627 8.07058 183.134 7.78603L177.471 4.51511C177.32 4.42818 177.098 4.42818 176.947 4.51511L171.285 7.78603C170.792 8.07069 169.992 8.07066 169.499 7.78603L163.836 4.51511C163.686 4.42837 163.464 4.42835 163.313 4.51511L157.65 7.78603C157.157 8.07069 156.357 8.07066 155.864 7.78603L150.201 4.51511C150.051 4.42836 149.829 4.42836 149.679 4.51511L144.016 7.78603C143.523 8.07069 142.723 8.07066 142.229 7.78603L136.567 4.51511C136.417 4.42818 136.194 4.42818 136.044 4.51511L130.381 7.78603C129.888 8.07063 129.089 8.07061 128.596 7.78603L122.933 4.51511C122.782 4.42817 122.56 4.42818 122.409 4.51511L116.746 7.78603C116.253 8.07062 115.454 8.07062 114.961 7.78603L109.298 4.51511C109.147 4.42817 108.925 4.42818 108.774 4.51511L103.111 7.78603C102.618 8.07061 101.819 8.07062 101.326 7.78603L95.6631 4.51511C95.513 4.42838 95.2907 4.42836 95.1406 4.51511L89.4775 7.78603C88.9845 8.07069 88.1845 8.07066 87.6914 7.78603L82.0293 4.51511C81.8788 4.42819 81.6563 4.42816 81.5059 4.51511L75.8428 7.78603C75.3497 8.07069 74.5497 8.07066 74.0566 7.78603L68.3945 4.51511C68.244 4.42819 68.0216 4.42816 67.8711 4.51511L62.208 7.78603C61.715 8.07069 60.9149 8.07066 60.4219 7.78603L54.7598 4.51511C54.6093 4.42818 54.3868 4.42818 54.2363 4.51511L48.5732 7.78603C48.0802 8.07062 47.2811 8.07064 46.7881 7.78603L41.125 4.51511C40.9745 4.42816 40.7521 4.42819 40.6016 4.51511L34.9395 7.78603C34.4464 8.07069 33.6464 8.07066 33.1533 7.78603L27.4902 4.51511C27.3398 4.42818 27.1172 4.42822 26.9668 4.51511L21.3047 7.78603C20.8117 8.07069 20.0116 8.07066 19.5186 7.78603L13.8555 4.51511C13.7054 4.42836 13.4831 4.42838 13.333 4.51511L7.66992 7.78603C7.17692 8.07065 6.37783 8.07059 5.88477 7.78603L0.22168 4.51511C0.071192 4.42818 -0.151272 4.42817 -0.301758 4.51511L-5.96484 7.78603C-6.36887 8.01927 -6.7832 7.61022 -6.7832 7.1437V1.85461C-6.7832 1.38793 -6.36898 0.979739 -5.96484 1.21311L-0.301758 3.48403C-0.151386 3.57095 0.0712972 3.57093 0.22168 3.48403L5.88477 1.21311C6.37786 0.928389 7.17685 0.928369 7.66992 1.21311L13.333 3.48403C13.483 3.57074 13.7055 3.57075 13.8555 3.48403L19.5186 0.213115C20.0117 -0.0716923 20.8116 -0.0716862 21.3047 0.213115L26.9668 3.48403C27.1171 3.57091 27.3399 3.57093 27.4902 3.48403L33.1533 0.213115C33.6464 -0.0716923 34.4463 -0.0716862 34.9395 0.213115L40.6016 3.48403C40.7519 3.57094 40.9746 3.57095 41.125 3.48403L46.7881 0.213115C47.2811 -0.0716231 48.0801 -0.071553 48.5732 0.213115L54.2363 3.48403C54.3864 3.57076 54.6097 3.57074 54.7598 3.48403L60.4219 0.213115C60.915 -0.0716923 61.7149 -0.0716862 62.208 0.213115L67.8711 3.48403C68.0215 3.57096 68.2441 3.57092 68.3945 3.48403L74.0566 0.213115C74.5497 -0.0716923 75.3497 -0.0716862 75.8428 0.213115L81.5059 3.48403C81.6562 3.57097 81.8789 3.57092 82.0293 3.48403L87.6914 0.213115C88.1845 -0.0716923 88.9844 -0.0716862 89.4775 0.213115L95.1406 3.48403C95.2906 3.57076 95.5131 3.57073 95.6631 3.48403L101.326 0.213115C101.819 -0.0716455 102.618 -0.071596 103.111 0.213115L108.774 3.48403C108.925 3.57094 109.147 3.57094 109.298 3.48403L114.961 0.213115C115.454 -0.0716382 116.253 -0.0716034 116.746 0.213115L122.409 3.48403C122.56 3.57094 122.782 3.57094 122.933 3.48403L128.596 0.213115C129.089 -0.0716294 129.888 -0.0716122 130.381 0.213115L136.044 3.48403C136.194 3.57095 136.417 3.57093 136.567 3.48403L142.229 0.213115C142.723 -0.0716923 143.523 -0.0716862 144.016 0.213115L149.679 3.48403C149.829 3.57078 150.051 3.57078 150.201 3.48403L155.864 0.213115C156.357 -0.0716923 157.157 -0.0716862 157.65 0.213115L163.313 3.48403C163.464 3.5708 163.686 3.57076 163.836 3.48403L169.499 0.213115C169.992 -0.071682 170.792 -0.0716828 171.285 0.213115L176.947 3.48403C177.097 3.57076 177.321 3.57074 177.471 3.48403L183.134 0.213115C183.627 -0.0715971 184.426 -0.0716445 184.919 0.213115L190.582 3.48403C190.732 3.57096 190.955 3.57092 191.105 3.48403L196.769 0.213115Z" fill="#FBF5EE"/>
</g>
<defs>
<clipPath id="clip0_2076_73">
<rect x="-39.2832" y="-75.0005" width="285" height="353" rx="20" fill="white"/>
</clipPath>
</defs>
</svg>
