<svg width="47" height="47" viewBox="0 0 47 47" fill="none" xmlns="http://www.w3.org/2000/svg">
<path fill-rule="evenodd" clip-rule="evenodd" d="M23.1987 0C36.011 0 46.3975 10.3864 46.3975 23.1987C46.3974 36.011 36.011 46.3975 23.1987 46.3975C10.3864 46.3975 3.90214e-05 36.011 0 23.1987C0 10.3864 10.3864 0 23.1987 0ZM26.5694 37.191C26.2401 37.3273 26.2401 37.7937 26.5694 37.9301L30.9661 39.7509C31.2953 39.8873 31.2954 40.3537 30.9661 40.4901L28.8322 41.3739C28.7342 41.4145 28.6241 41.4145 28.5261 41.3739L22.651 38.9407C22.553 38.9001 22.4429 38.9001 22.3449 38.9407L15.2063 41.8972C14.8845 42.0304 14.8769 42.4785 15.1989 42.6114C17.6644 43.6285 20.366 44.1898 23.1987 44.1898C24.7752 44.1898 26.311 44.0156 27.7881 43.6861C27.8105 43.6811 27.8323 43.6742 27.8535 43.6654L30.9423 42.3862C30.9474 42.3841 30.9474 42.3768 30.9423 42.3747C30.9372 42.3725 30.9372 42.3653 30.9423 42.3632L34.0937 41.0579C34.1026 41.0542 34.1126 41.0542 34.1215 41.0579C34.1303 41.0616 34.1403 41.0616 34.1492 41.0579L34.3684 40.967C34.3895 40.9583 34.4097 40.9478 34.4289 40.9356C36.2432 39.7845 37.8688 38.3629 39.2489 36.7272C39.4208 36.5235 39.3413 36.2138 39.0951 36.1118L34.2881 34.1209C34.1901 34.0804 34.08 34.0804 33.982 34.1209L26.5694 37.191ZM38.2067 22.7312C37.8774 22.8676 37.8774 23.334 38.2067 23.4703L42.7509 25.3525C43.0802 25.4888 43.0802 25.9552 42.7509 26.0916L40.6169 26.9754C40.5189 27.016 40.4088 27.016 40.3108 26.9754L34.2882 24.481C34.1902 24.4404 34.0801 24.4404 33.9821 24.481L26.5693 27.5512C26.2401 27.6875 26.2401 28.1539 26.5693 28.2903L31.1135 30.1724C31.4428 30.3088 31.4428 30.7751 31.1135 30.9115L28.9797 31.7953C28.8817 31.8359 28.7716 31.8359 28.6736 31.7953L22.651 29.3009C22.553 29.2603 22.4429 29.2603 22.3449 29.3009L14.9322 32.3712C14.603 32.5076 14.603 32.974 14.9322 33.1103L19.4764 34.9923C19.8056 35.1287 19.8056 35.5951 19.4764 35.7314L17.3424 36.6152C17.2444 36.6558 17.1343 36.6558 17.0363 36.6152L11.0137 34.1209C10.9157 34.0804 10.8056 34.0804 10.7076 34.1209L6.94681 35.6783C6.70461 35.7786 6.62271 36.0809 6.78627 36.2858C8.14328 37.9854 9.75865 39.4696 11.5731 40.6787C11.6829 40.7519 11.8221 40.7646 11.9441 40.7141L43.5439 27.626C43.6659 27.5755 43.7553 27.4681 43.7812 27.3387C44.049 26.0002 44.1898 24.6159 44.1898 23.1987C44.1898 22.4041 44.1455 21.6198 44.0595 20.8482C44.0304 20.5876 43.7587 20.4316 43.5164 20.5319L38.2067 22.7312ZM38.2066 32.3712C37.8773 32.5076 37.8774 32.9739 38.2066 33.1103L40.7166 34.1497C40.8974 34.2246 41.1062 34.1579 41.2069 33.9902C41.7281 33.1223 42.1884 32.2137 42.5818 31.2702C42.7159 30.9486 42.3937 30.6368 42.0718 30.7701L38.2066 32.3712ZM26.5693 17.9113C26.2401 18.0477 26.2401 18.5141 26.5693 18.6504L31.1112 20.5316C31.4405 20.668 31.4405 21.1344 31.1112 21.2707L28.9774 22.1546C28.8794 22.1952 28.7693 22.1952 28.6713 22.1546L22.651 19.6611C22.553 19.6205 22.4429 19.6205 22.3449 19.6611L14.9322 22.7312C14.603 22.8676 14.603 23.334 14.9322 23.4704L19.4741 25.3515C19.8034 25.4879 19.8034 25.9543 19.4741 26.0907L17.3401 26.9745C17.2421 27.0151 17.132 27.0151 17.034 26.9745L11.0136 24.481C10.9156 24.4404 10.8055 24.4404 10.7075 24.481L2.87928 27.7232C2.78262 27.7632 2.72863 27.867 2.75235 27.9689C2.76801 28.0362 2.81533 28.0916 2.87916 28.118L7.83687 30.1715C8.16612 30.3078 8.16612 30.7742 7.83687 30.9106L5.7029 31.7944C5.60489 31.835 5.49477 31.835 5.39677 31.7944L4.63555 31.4791C4.30736 31.3432 3.9833 31.6685 4.13225 31.991C4.38512 32.5385 4.66087 33.0732 4.9583 33.594C5.05695 33.7668 5.26911 33.837 5.4529 33.7609L43.2171 18.1196C43.4009 18.0434 43.5012 17.8437 43.4488 17.6517C43.3642 17.3424 43.2728 17.036 43.1746 16.7325C43.1037 16.5134 42.8604 16.4043 42.6476 16.4924L40.6145 17.3346C40.5165 17.3752 40.4064 17.3752 40.3083 17.3347L34.2879 14.8413C34.1899 14.8007 34.0798 14.8007 33.9818 14.8413L26.5693 17.9113ZM26.5693 8.27147C26.2401 8.40785 26.2401 8.87422 26.5693 9.01058L31.1091 10.8907C31.4383 11.0271 31.4383 11.4935 31.1091 11.6299L28.9751 12.5138C28.8771 12.5544 28.767 12.5544 28.6689 12.5138L22.6508 10.0214C22.5528 9.98078 22.4427 9.98078 22.3447 10.0214L14.9321 13.0914C14.6029 13.2278 14.6029 13.6942 14.9321 13.8305L19.4718 15.7106C19.801 15.847 19.801 16.3134 19.4718 16.4498L17.3378 17.3336C17.2398 17.3742 17.1297 17.3742 17.0317 17.3336L11.0136 14.8411C10.9156 14.8005 10.8055 14.8005 10.7075 14.8411L2.94493 18.0562C2.87306 18.0859 2.81949 18.1479 2.80104 18.2235C2.77258 18.3401 2.83407 18.4596 2.94497 18.5056L7.83439 20.5306C8.16364 20.6669 8.16365 21.1333 7.8344 21.2697L5.70058 22.1535C5.60258 22.1941 5.49247 22.1941 5.39446 22.1535L2.82648 21.09C2.58015 20.9879 2.30484 21.1509 2.28247 21.4166C2.23299 22.0041 2.20761 22.5985 2.20761 23.1987C2.20762 23.7653 2.23024 24.3266 2.27438 24.8818C2.29557 25.1484 2.57149 25.3126 2.81853 25.2103L39.0324 10.2112C39.2793 10.1089 39.3583 9.79786 39.185 9.59439C37.7529 7.91317 36.0602 6.46078 34.1695 5.29945C34.0615 5.23307 33.9281 5.22336 33.8109 5.2719L26.5693 8.27147ZM38.2066 13.0914C37.8774 13.2278 37.8774 13.6941 38.2066 13.8305L41.9715 15.3898C42.2955 15.524 42.6184 15.2077 42.4793 14.8857C42.0843 13.9708 41.6259 13.0896 41.1099 12.2475C41.0084 12.0818 40.801 12.0166 40.6214 12.091L38.2066 13.0914ZM23.1987 2.20761C20.4587 2.20761 17.8413 2.73263 15.4416 3.68752C15.1159 3.81712 15.1208 4.26882 15.4446 4.40295L19.4696 6.07001C19.7989 6.20639 19.7988 6.67277 19.4696 6.80913L17.3354 7.69298C17.2374 7.73357 17.1273 7.73356 17.0292 7.69297L12.0335 5.62373C11.9123 5.57349 11.7739 5.58575 11.6643 5.65797C9.86633 6.84269 8.26144 8.29648 6.90669 9.96194C6.74034 10.1664 6.82144 10.4713 7.06498 10.5721L7.83229 10.89C8.16153 11.0263 8.16153 11.4927 7.83229 11.6291L5.66387 12.5272C5.58799 12.5586 5.50274 12.5586 5.42688 12.5272C5.2851 12.4684 5.12146 12.5223 5.04426 12.6549C4.73761 13.1818 4.45321 13.7231 4.19239 14.2778C4.04071 14.6003 4.36505 14.9281 4.69438 14.7917L30.3405 4.16941C30.6697 4.03306 30.6675 3.5722 30.3324 3.45112C28.1054 2.64642 25.7033 2.20761 23.1987 2.20761Z" fill="#888888"/>
</svg>
